Coordinates
version=1
nRows=11
nColumns=40
inDegrees=yes

Units are S.I. units (second, meters, Newtons, ...)
Angles are in degrees.

endheader
time	pelvis_tilt	pelvis_list	pelvis_rotation	pelvis_tx	pelvis_ty	pelvis_tz	hip_flexion_r	hip_adduction_r	hip_rotation_r	knee_angle_r	knee_angle_r_beta	ankle_angle_r	subtalar_angle_r	mtp_angle_r	hip_flexion_l	hip_adduction_l	hip_rotation_l	knee_angle_l	knee_angle_l_beta	ankle_angle_l	subtalar_angle_l	mtp_angle_l	lumbar_extension	lumbar_bending	lumbar_rotation	arm_flex_r	arm_add_r	arm_rot_r	elbow_flex_r	pro_sup_r	wrist_flex_r	wrist_dev_r	arm_flex_l	arm_add_l	arm_rot_l	elbow_flex_l	pro_sup_l	wrist_flex_l	wrist_dev_l
      0.00000000	     -6.20990188	     -7.48265076	     -2.92174613	     -1.24011136	      0.85080239	     -0.99444591	     40.42088737	      8.15141518	    -13.86181608	    -32.11609071	     -0.56053153	      1.03576399	     -6.17070667	      0.53275272	    -14.00166912	      6.66358453	      7.43800958	     -9.54906292	     -0.16666259	     18.56959024	     -7.23417463	     -5.59903902	     -5.03397957	     12.02568604	     -6.00794907	     -5.50136266	    -10.65465022	     13.12893236	      6.74493156	     89.95437384	      0.00000000	      0.00000000	     17.88703621	     12.90962186	    -19.59071558	     37.08975314	     89.95437384	      0.00000000	      0.00000000
      0.01000000	     -6.30388393	     -7.66827890	     -2.88627233	     -1.23043477	      0.84927275	     -0.99472369	     40.64522163	      8.29764887	    -13.64123900	    -32.56478492	     -0.56836272	      1.06530857	     -6.24758294	      0.58183752	    -14.38337811	      6.82804550	      7.27628153	     -9.98988577	     -0.17435640	     18.37080371	     -7.16350246	     -5.61697147	     -4.86788498	     12.28404887	     -5.86405675	     -5.65540771	    -10.61726950	     13.28802070	      6.74284764	     89.95437384	      0.00000000	      0.00000000	     17.23427498	     12.64310314	    -19.54665845	     37.47911104	     89.95437384	      0.00000000	      0.00000000
      0.02000000	     -6.33902352	     -7.81867271	     -2.73472574	     -1.22081313	      0.84807055	     -0.99500335	     40.65690813	      8.36461703	    -13.51538958	    -32.95104257	     -0.57510418	      1.10694694	     -6.37487300	      0.65843695	    -14.67854563	      7.00661623	      7.09535725	    -10.62714833	     -0.18547873	     18.02607887	     -7.02192722	     -5.63267282	     -4.76356246	     12.50261791	     -5.83512090	     -5.69684570	    -10.53267554	     13.48128511	      6.76158916	     89.95437384	      0.00000000	      0.00000000	     16.55730134	     12.40944634	    -19.46102395	     37.86508498	     89.95437384	      0.00000000	      0.00000000
      0.03000000	     -6.12938150	     -8.05083304	     -2.38981373	     -1.21106290	      0.84742253	     -0.99519528	     40.18633864	      8.56332073	    -13.27137464	    -33.10538851	     -0.57779803	      1.06122011	     -7.05882878	      0.99862454	    -15.12529958	      7.33374288	      6.91939551	    -11.43047295	     -0.19949939	     17.54458487	     -6.77901932	     -5.81816523	     -4.91861631	     12.78818345	     -6.03611386	     -5.54553226	    -10.41257330	     14.01567268	      6.70691884	     89.95437384	      0.00000000	      0.00000000	     15.80065196	     12.26834037	    -19.23664418	     38.29996871	     89.95437384	      0.00000000	      0.00000000
      0.04000000	     -6.31243651	     -7.92088314	     -2.29347698	     -1.20022868	      0.84610107	     -0.99554650	     40.02800832	      8.42016983	    -12.99423541	    -33.48067669	     -0.58434804	      0.86852321	     -6.82336760	      0.99395267	    -15.25052290	      7.15892117	      6.70922638	    -12.19004169	     -0.21275636	     17.05581132	     -6.53554435	     -5.70514267	     -4.50323744	     12.71319619	     -5.94444304	     -5.85251359	    -10.37049122	     13.97487611	      7.19346472	     89.95437384	      0.00000000	      0.00000000	     14.97118873	     11.96746365	    -19.25254155	     38.38466269	     89.95437384	      0.00000000	      0.00000000
      0.05000000	     -6.31306579	     -8.19567857	     -2.17709261	     -1.18923338	      0.84516818	     -0.99544473	     39.73729578	      8.70007988	    -12.98485243	    -34.28392911	     -0.59836744	      0.01316443	     -7.01093912	      1.17996429	    -15.65110515	      7.45551669	      6.44867749	    -12.84622357	     -0.22420890	     16.53201325	     -6.18920384	     -5.64076377	     -4.29701317	     13.06538543	     -5.87169708	     -5.80183669	    -10.29533028	     14.21411414	      7.08944713	     89.95437384	      0.00000000	      0.00000000	     14.13480934	     11.65437294	    -19.21727200	     38.32504792	     89.95437384	      0.00000000	      0.00000000
      0.06000000	     -5.99646755	     -8.37986267	     -1.93299923	     -1.17807570	      0.84534095	     -0.99531719	     38.82496747	      8.89175324	    -13.07281610	    -34.53700473	     -0.60278445	     -1.07417266	     -7.69782639	      1.62653068	    -16.06369621	      7.74960400	      6.22336417	    -13.97154736	     -0.24384950	     15.32674222	     -5.65280962	     -5.65967830	     -4.44219803	     13.27985248	     -5.93918403	     -5.58686506	    -10.17748879	     14.82863646	      7.00312977	     89.95437384	      0.00000000	      0.00000000	     13.31512692	     11.40588548	    -19.13031416	     38.14172152	     89.95437384	      0.00000000	      0.00000000
      0.07000000	     -6.14604335	     -8.72426860	     -2.00572828	     -1.16690757	      0.84482000	     -0.99437133	     38.71542843	      9.50577223	    -12.76865334	    -35.35367074	     -0.61703796	     -0.14799505	     -8.48234142	      5.28236881	    -15.94472195	      8.25156804	      6.95708511	    -15.32619328	     -0.26749253	     13.59014702	     -5.19940875	     -9.70096107	     -4.12591832	     13.64063432	     -5.60103717	     -5.97530176	    -10.51107757	     17.99352342	      8.11112052	     89.95437384	      0.00000000	      0.00000000	     12.41568895	     11.05149718	    -18.92601603	     37.93304678	     89.95437384	      0.00000000	      0.00000000
      0.08000000	     -6.07525687	     -8.69260710	     -1.90528868	     -1.15573391	      0.84521382	     -0.99417391	     38.42980454	      9.45734021	    -12.61495627	    -36.26817855	     -0.63299913	      0.22980075	     -8.45873042	      5.11514190	    -15.78872174	      8.28098992	      6.53491222	    -16.93721122	     -0.29561010	     12.35555835	     -4.71647221	     -9.36608846	     -4.05290529	     13.63537906	     -5.46247031	     -5.82856917	    -10.41588774	     18.05731396	      8.37759225	     89.95437384	      0.00000000	      0.00000000	     11.63398014	     10.73762629	    -18.88281210	     37.42469000	     89.95437384	      0.00000000	      0.00000000
      0.09000000	     -6.04265893	     -8.77623337	     -2.08860416	     -1.14355399	      0.84572173	     -0.99379124	     38.10019946	      9.72682547	    -12.15725782	    -37.19908223	     -0.64924646	      0.46069269	     -8.32868575	      4.93974013	    -15.76625970	      8.28291498	      6.15851726	    -18.42779318	     -0.32162566	     10.98869047	     -4.21505394	     -9.00781355	     -3.88238391	     13.76891689	     -5.11331019	     -5.80158540	    -10.46281302	     18.10043771	      8.81556957	     89.95437384	      0.00000000	      0.00000000	     10.62027724	     10.40015234	    -18.79848236	     36.96100391	     89.95437384	      0.00000000	      0.00000000
      0.10000000	     -5.85229379	     -8.82629483	     -2.05952709	     -1.13183860	      0.84705917	     -0.99326718	     37.28871791	     10.07411028	    -11.52738369	    -37.57862718	     -0.65587077	      1.55627975	     -8.97440380	      4.83234131	    -15.38430588	      8.49421779	      6.47322230	    -20.60928418	     -0.35969987	      8.61720775	     -3.28411514	     -8.55966604	     -3.86885865	     13.81529667	     -4.90795874	     -5.49239646	    -10.34485131	     18.57651189	      8.88159444	     89.95437384	      0.00000000	      0.00000000	      9.91259345	      9.95362602	    -18.59832283	     35.78610489	     89.95437384	      0.00000000	      0.00000000
